<svg width="24" height="25" viewBox="0 0 24 25" fill="none" xmlns="http://www.w3.org/2000/svg">
<path d="M19 10.5H20C20.2652 10.5 20.5196 10.6054 20.7071 10.7929C20.8946 10.9804 21 11.2348 21 11.5V21.5C21 21.7652 20.8946 22.0196 20.7071 22.2071C20.5196 22.3946 20.2652 22.5 20 22.5H4C3.73478 22.5 3.48043 22.3946 3.29289 22.2071C3.10536 22.0196 3 21.7652 3 21.5V11.5C3 11.2348 3.10536 10.9804 3.29289 10.7929C3.48043 10.6054 3.73478 10.5 4 10.5H5V9.5C5 8.58075 5.18106 7.6705 5.53284 6.82122C5.88463 5.97194 6.40024 5.20026 7.05025 4.55025C7.70026 3.90024 8.47194 3.38463 9.32122 3.03284C10.1705 2.68106 11.0807 2.5 12 2.5C12.9193 2.5 13.8295 2.68106 14.6788 3.03284C15.5281 3.38463 16.2997 3.90024 16.9497 4.55025C17.5998 5.20026 18.1154 5.97194 18.4672 6.82122C18.8189 7.6705 19 8.58075 19 9.5V10.5ZM5 12.5V20.5H19V12.5H5ZM11 14.5H13V18.5H11V14.5ZM17 10.5V9.5C17 8.17392 16.4732 6.90215 15.5355 5.96447C14.5979 5.02678 13.3261 4.5 12 4.5C10.6739 4.5 9.40215 5.02678 8.46447 5.96447C7.52678 6.90215 7 8.17392 7 9.5V10.5H17Z" fill="#818898"/>
</svg>
