<svg width="28" height="28" viewBox="0 0 28 28" fill="none" xmlns="http://www.w3.org/2000/svg">
<path d="M14 0.666687C6.65335 0.666687 0.666687 6.65335 0.666687 14C0.666687 21.3467 6.65335 27.3334 14 27.3334C21.3467 27.3334 27.3334 21.3467 27.3334 14C27.3334 6.65335 21.3467 0.666687 14 0.666687ZM20.3734 10.9334L12.8134 18.4934C12.6267 18.68 12.3734 18.7867 12.1067 18.7867C11.84 18.7867 11.5867 18.68 11.4 18.4934L7.62669 14.72C7.24002 14.3334 7.24002 13.6934 7.62669 13.3067C8.01335 12.92 8.65335 12.92 9.04002 13.3067L12.1067 16.3734L18.96 9.52002C19.3467 9.13335 19.9867 9.13335 20.3734 9.52002C20.76 9.90669 20.76 10.5334 20.3734 10.9334Z" fill="white"/>
</svg>
